<svg width="45" height="45" viewBox="0 0 45 45" fill="none" xmlns="http://www.w3.org/2000/svg">
<path d="M44.1503 20.4915L24.4994 0.850949C24.2303 0.581211 23.9106 0.367203 23.5587 0.221183C23.2068 0.0751626 22.8295 0 22.4484 0C22.0674 0 21.6901 0.0751626 21.3381 0.221183C20.9862 0.367203 20.6665 0.581211 20.3974 0.850949L16.3249 4.92979L21.5027 10.0997C22.1109 9.8934 22.7648 9.86164 23.3902 10.008C24.0155 10.1544 24.5874 10.473 25.0408 10.9278C26.0083 11.8952 26.2783 13.2857 25.8691 14.4864L30.85 19.4736C31.4603 19.2611 32.1181 19.2253 32.7478 19.3703C33.3775 19.5154 33.9535 19.8353 34.4092 20.2933C35.7649 21.6402 35.7649 23.8224 34.4092 25.1707C34.0896 25.4909 33.71 25.745 33.292 25.9183C32.8741 26.0916 32.4261 26.1808 31.9736 26.1808C31.5212 26.1808 31.0731 26.0916 30.6552 25.9183C30.2373 25.745 29.8576 25.4909 29.538 25.1707C29.058 24.6905 28.7298 24.0798 28.5943 23.4146C28.4588 22.7494 28.5219 22.059 28.7758 21.4293L24.1099 16.7867V29.0232C24.4389 29.1849 24.7539 29.4042 25.0254 29.6756C26.3655 31.031 26.3655 33.2047 25.0254 34.553C24.3757 35.2 23.4961 35.5632 22.5792 35.5632C21.6623 35.5632 20.7827 35.2 20.133 34.553C19.731 34.1509 19.4346 33.6557 19.2703 33.1115C19.106 32.5672 19.0787 31.9907 19.1911 31.4334C19.3034 30.8761 19.5518 30.3551 19.9141 29.917C20.2764 29.4788 20.7415 29.137 21.2679 28.922V16.5687C20.848 16.3905 20.4654 16.1348 20.1401 15.8151C19.6561 15.3326 19.3273 14.7166 19.1955 14.0461C19.0637 13.3756 19.135 12.681 19.4004 12.0512L14.3168 6.94038L0.840716 20.4072C0.30199 20.9538 0 21.6904 0 22.4578C0 23.2252 0.30199 23.9619 0.840716 24.5085L20.4916 44.1491C20.7607 44.4188 21.0804 44.6328 21.4323 44.7788C21.7843 44.9248 22.1616 45 22.5426 45C22.9237 45 23.301 44.9248 23.6529 44.7788C24.0049 44.6328 24.3245 44.4188 24.5936 44.1491L44.1489 24.5971C44.4187 24.328 44.6327 24.0084 44.7788 23.6565C44.9248 23.3046 45 22.9274 45 22.5464C45 22.1654 44.9248 21.7882 44.7788 21.4363C44.6327 21.0844 44.4187 20.7648 44.1489 20.4957L44.1503 20.4915Z" fill="#333646"/>
</svg>
