<svg width="47" height="45" viewBox="0 0 47 45" fill="none" xmlns="http://www.w3.org/2000/svg">
<path d="M38.3895 14.5828C37.8938 14.402 37.398 14.2312 36.9023 14.0705C36.985 13.6989 37.0584 13.3273 37.1318 12.9556C38.2609 6.96935 37.5174 2.15823 35.0113 0.571258C32.5971 -0.945402 28.659 0.631523 24.675 4.42819C24.2803 4.79983 23.8947 5.19155 23.5275 5.58327C23.2797 5.32212 23.0227 5.06097 22.7656 4.80987C18.5889 0.752052 14.4029 -0.955446 11.8969 0.641567C9.4918 2.16827 8.77578 6.69816 9.78555 12.363C9.88652 12.9255 9.99668 13.4779 10.1252 14.0404C9.5377 14.2212 8.95937 14.4221 8.41777 14.633C3.51582 16.4912 0 19.424 0 22.4574C0 25.5911 3.74531 28.7349 8.84004 30.6433C9.25313 30.794 9.66621 30.9446 10.0885 31.0752C9.95078 31.6779 9.83145 32.2705 9.72129 32.8831C8.75742 38.4576 9.51016 42.877 11.9152 44.3937C14.3938 45.9606 18.5613 44.3535 22.6187 40.4664C22.94 40.1551 23.2613 39.8337 23.5826 39.4922C23.9865 39.9241 24.4088 40.3359 24.8311 40.7376C28.76 44.4339 32.643 45.9304 35.0389 44.4138C37.5174 42.8469 38.3252 38.096 37.2787 32.3106C37.1961 31.8687 37.1043 31.4167 37.0033 30.9547C37.2971 30.8643 37.5816 30.7638 37.8662 30.6634C43.1629 28.745 47 25.6413 47 22.4574C47 19.414 43.3832 16.461 38.3895 14.5828V14.5828ZM25.9693 6.05534C29.3842 2.80105 32.5695 1.52545 34.0199 2.43946C35.5713 3.41374 36.168 7.35103 35.1949 12.5237C35.1307 12.8652 35.0664 13.1967 34.9838 13.5282C32.9459 13.0259 30.8805 12.6644 28.8059 12.4635C27.6125 10.5953 26.309 8.80743 24.8953 7.13006C25.2533 6.75843 25.6021 6.40688 25.9693 6.05534V6.05534ZM15.3484 27.6703C15.8166 28.5441 16.2939 29.4179 16.7988 30.2717C15.3668 30.1009 13.9439 29.8498 12.5395 29.5184C12.9434 28.072 13.4482 26.5754 14.0357 25.0487C14.458 25.9326 14.8895 26.8065 15.3484 27.6703V27.6703ZM12.567 15.5872C13.8889 15.2658 15.2934 15.0046 16.7529 14.8038C16.2664 15.6374 15.7891 16.4912 15.3393 17.355C14.8895 18.2087 14.4488 19.0825 14.0357 19.9664C13.4574 18.4699 12.9709 17.0034 12.567 15.5872ZM15.0822 22.5076C15.6881 21.1215 16.349 19.7655 17.0467 18.4297C17.7443 17.0938 18.4971 15.7981 19.2865 14.5225C20.6635 14.412 22.068 14.3518 23.5 14.3518C24.932 14.3518 26.3457 14.412 27.7135 14.5225C28.4937 15.7881 29.2373 17.0838 29.9441 18.4096C30.651 19.7354 31.3119 21.0914 31.9361 22.4674C31.3211 23.8535 30.6602 25.2195 29.9533 26.5654C29.2557 27.9013 28.5121 29.197 27.7318 30.4826C26.3641 30.5931 24.9412 30.6433 23.5 30.6433C22.0588 30.6433 20.6635 30.5931 19.3141 30.5027C18.5154 29.2271 17.7627 27.9214 17.0559 26.5855C16.349 25.2496 15.6973 23.8937 15.0822 22.5076ZM31.6607 27.6502C32.1289 26.7663 32.5695 25.8724 33.001 24.9684C33.5885 26.4248 34.1025 27.9013 34.5523 29.4179C33.1295 29.7695 31.6883 30.0407 30.2379 30.2215C30.7336 29.3778 31.2018 28.514 31.6607 27.6502ZM32.9826 19.9664C32.5512 19.0825 32.1105 18.1987 31.6516 17.3349C31.2018 16.4811 30.7336 15.6374 30.2471 14.8038C31.725 15.0046 33.1387 15.2758 34.4605 15.6073C34.0383 17.0938 33.5426 18.5402 32.9826 19.9664V19.9664ZM23.5184 8.66681C24.4822 9.81184 25.391 11.0171 26.2355 12.2626C24.418 12.1722 22.5912 12.1722 20.7736 12.2626C21.6732 10.9669 22.6004 9.76162 23.5184 8.66681ZM12.8699 2.50977C14.4121 1.52545 17.8361 2.93162 21.4438 6.42697C21.6732 6.64794 21.9027 6.889 22.1414 7.13006C20.7186 8.80743 19.4059 10.5953 18.2033 12.4635C16.1287 12.6644 14.0725 13.0159 12.0346 13.5081C11.9152 12.9958 11.8143 12.4735 11.7133 11.9512C10.8504 7.08988 11.4195 3.42378 12.8699 2.50977V2.50977ZM10.6209 28.986C10.2354 28.8655 9.85898 28.7349 9.48262 28.5943C7.52734 27.9214 5.30586 26.8567 3.69941 25.4606C2.77227 24.7575 2.14805 23.6727 1.97363 22.4574C1.97363 20.6193 4.87441 18.269 9.06035 16.672C9.58359 16.4711 10.116 16.2903 10.6484 16.1195C11.2727 18.2991 12.0254 20.4385 12.8975 22.5076C12.0162 24.6068 11.2543 26.7763 10.6209 28.986V28.986ZM21.3244 38.8293C19.8098 40.3459 18.0564 41.5512 16.1471 42.3748C15.1281 42.9072 13.9531 42.9574 12.9066 42.5054C11.4471 41.5813 10.8412 38.0358 11.6674 33.2648C11.7684 32.7024 11.8785 32.1399 12.007 31.5875C14.0633 32.0696 16.1379 32.401 18.24 32.5718C19.4518 34.45 20.7828 36.2479 22.2057 37.9353C21.9119 38.2467 21.6182 38.548 21.3244 38.8293ZM23.5734 36.3885C22.6371 35.2837 21.7008 34.0583 20.792 32.7425C21.6732 32.7827 22.582 32.8028 23.5 32.8028C24.4455 32.8028 25.3727 32.7827 26.2906 32.7325C25.4461 34.0081 24.5373 35.2234 23.5734 36.3885V36.3885ZM35.5713 39.4018C35.4887 40.6272 34.9379 41.7722 34.0566 42.5456C32.5971 43.4696 29.4852 42.2643 26.1254 39.1105C25.7398 38.7489 25.3543 38.3572 24.9596 37.9554C26.3641 36.258 27.6584 34.4601 28.8334 32.5718C30.9355 32.3809 33.0285 32.0294 35.0939 31.5171C35.1857 31.929 35.2684 32.3408 35.3418 32.7425C35.7916 34.9121 35.865 37.172 35.5713 39.4018V39.4018ZM37.242 28.6044C36.985 28.6948 36.7279 28.7852 36.4617 28.8655C35.8191 26.6759 35.0297 24.5365 34.1209 22.4574C35.0021 20.4084 35.7457 18.2991 36.3699 16.1396C36.8473 16.2903 37.3063 16.451 37.7469 16.6117C42.0246 18.2188 45.0264 20.6092 45.0264 22.4373C45.0264 24.4059 41.8227 26.9471 37.242 28.6044ZM23.5 27.0977C25.8225 27.0977 27.7043 25.0387 27.7043 22.4975C27.7043 19.9564 25.8225 17.8973 23.5 17.8973C21.1775 17.8973 19.2957 19.9564 19.2957 22.4975C19.2957 25.0387 21.1775 27.0977 23.5 27.0977Z" fill="#333646"/>
</svg>
