<svg width="22" height="22" viewBox="0 0 22 22" fill="none" xmlns="http://www.w3.org/2000/svg">
<path d="M15.6674 21.98C15.3756 21.98 15.0958 21.8641 14.8895 21.6578C14.6832 21.4516 14.5672 21.1718 14.5672 20.8801V18.0202C14.6014 17.6912 14.5662 17.3588 14.4639 17.0442C14.3616 16.7297 14.1944 16.4402 13.9732 16.1943C13.8362 16.0458 13.7428 15.8624 13.7032 15.6643C13.6636 15.4662 13.6793 15.261 13.7486 15.0713C13.818 14.8815 13.9382 14.7145 14.0962 14.5886C14.2542 14.4627 14.4438 14.3827 14.6443 14.3574C17.3285 14.0384 19.8037 13.1804 19.8037 8.52767C19.8046 7.6588 19.5481 6.80913 19.0667 6.08579C18.6224 5.41992 18.4602 4.60512 18.6156 3.8199C18.7148 3.30768 18.7148 2.7812 18.6156 2.26898C17.7919 2.54746 17.0163 2.95191 16.3164 3.46792C16.1841 3.56187 16.0326 3.62539 15.8729 3.65391C15.7131 3.68244 15.549 3.67527 15.3923 3.63291C13.407 3.072 11.3051 3.072 9.31975 3.63291C9.16309 3.67527 8.99899 3.68244 8.83922 3.65391C8.67946 3.62539 8.52799 3.56187 8.39567 3.46792C7.69153 2.94593 6.9077 2.54107 6.07444 2.26898C5.96983 2.78066 5.96983 3.30822 6.07444 3.8199C6.21865 4.615 6.0491 5.43504 5.6014 6.10779C5.12204 6.8362 4.86587 7.68872 4.86433 8.56067C4.86433 12.8395 6.93253 13.9834 10.0348 14.3794C10.2378 14.4046 10.4298 14.4858 10.5891 14.6141C10.7485 14.7423 10.8689 14.9124 10.9369 15.1053C11.0009 15.2925 11.0132 15.4935 10.9725 15.687C10.9319 15.8806 10.8397 16.0597 10.7059 16.2053C10.4919 16.434 10.3277 16.7045 10.2235 16.9999C10.1194 17.2952 10.0776 17.6089 10.1008 17.9212V20.8801C10.1008 21.1718 9.98492 21.4516 9.77861 21.6578C9.5723 21.8641 9.29249 21.98 9.00072 21.98C8.70896 21.98 8.42914 21.8641 8.22283 21.6578C8.01652 21.4516 7.90062 21.1718 7.90062 20.8801V20.2531C6.81962 20.3774 5.72464 20.2326 4.71316 19.8315C3.70167 19.4304 2.80504 18.7855 2.10307 17.9542C1.74224 17.5543 1.30932 17.2259 0.826947 16.9862C0.686813 16.9501 0.555165 16.8868 0.43952 16.7998C0.323875 16.7128 0.226497 16.6039 0.152946 16.4793C0.0793946 16.3547 0.0311112 16.2168 0.010852 16.0736C-0.00940713 15.9303 -0.00124508 15.7844 0.0348719 15.6443C0.0709888 15.5042 0.134354 15.3726 0.221348 15.2569C0.308343 15.1413 0.417263 15.044 0.541891 14.9704C0.666519 14.8969 0.804414 14.8486 0.947702 14.8283C1.09099 14.8081 1.23687 14.8162 1.377 14.8524C2.22325 15.1606 2.97941 15.6747 3.57721 16.3483C4.67731 17.4482 5.77742 18.4162 7.86761 18.0202C7.83086 17.4296 7.91702 16.8379 8.12064 16.2823C5.85442 15.7103 2.62012 14.0824 2.62012 8.58267C2.61722 7.27993 2.99999 6.00547 3.72022 4.91985C3.854 4.71944 3.90523 4.47514 3.86324 4.23788C3.64094 3.05057 3.76702 1.82431 4.22627 0.707059C4.28867 0.558087 4.38312 0.424683 4.5029 0.316324C4.62268 0.207965 4.76486 0.127311 4.91933 0.0800901C5.29337 -0.0299044 6.6355 -0.249893 9.17674 1.40002C11.2339 0.905053 13.3792 0.905053 15.4363 1.40002C17.9776 -0.249893 19.3197 -0.0409039 19.6827 0.0800901C19.8372 0.127311 19.9794 0.207965 20.0992 0.316324C20.219 0.424683 20.3134 0.558087 20.3758 0.707059C20.836 1.82794 20.962 3.05798 20.7388 4.24888C20.7163 4.35618 20.7154 4.4669 20.7362 4.57455C20.757 4.6822 20.799 4.78463 20.8598 4.87585C21.5822 5.96459 21.965 7.24318 21.96 8.54967C21.96 14.1264 18.7476 15.7433 16.4594 16.2493C16.661 16.8395 16.7433 17.4639 16.7015 18.0862V20.8801C16.702 21.1607 16.5952 21.4309 16.4029 21.6354C16.2107 21.8399 15.9475 21.9632 15.6674 21.98Z" fill="#333646"/>
</svg>
