<svg width="21" height="21" viewBox="0 0 21 21" fill="none" xmlns="http://www.w3.org/2000/svg">
<path d="M2.42777 4.85661C3.7686 4.85661 4.85555 3.76942 4.85555 2.4283C4.85555 1.08719 3.7686 0 2.42777 0C1.08695 0 0 1.08719 0 2.4283C0 3.76942 1.08695 4.85661 2.42777 4.85661Z" fill="#333646"/>
<path d="M7.14796 6.69669V20.1689H11.33V13.5066C11.33 11.7486 11.6606 10.0462 13.8399 10.0462C15.9891 10.0462 16.0158 12.0561 16.0158 13.6176V20.17H20.2V12.7819C20.2 9.15274 19.4189 6.36375 15.178 6.36375C13.1419 6.36375 11.7772 7.48134 11.219 8.53901H11.1624V6.69669H7.14796ZM0.332886 6.69669H4.52157V20.1689H0.332886V6.69669Z" fill="#333646"/>
</svg>
