<svg width="45" height="45" viewBox="0 0 45 45" fill="none" xmlns="http://www.w3.org/2000/svg">
<path d="M0 0V45H45V0H0ZM24.4896 35.0952C24.4896 39.4746 21.9182 41.4739 18.172 41.4739C14.7873 41.4739 12.8282 39.727 11.8238 37.6071L15.2695 35.5275C15.9332 36.7023 16.5359 37.6971 17.992 37.6971C19.3773 37.6971 20.2612 37.1539 20.2612 35.0357V20.6614H24.4896V35.0952ZM34.4925 41.4739C30.5646 41.4739 28.0237 39.6064 26.7879 37.1539L30.2336 35.1659C31.1384 36.6429 32.3229 37.7373 34.4025 37.7373C36.1495 37.7373 37.2761 36.863 37.2761 35.648C37.2761 34.2016 36.1302 33.6889 34.192 32.8355L33.1377 32.3839C30.0841 31.0886 28.0655 29.4509 28.0655 26.0052C28.0655 22.8311 30.4859 20.4204 34.253 20.4204C36.945 20.4204 38.8736 21.3541 40.2605 23.805L36.9659 25.9152C36.2427 24.6198 35.4584 24.1071 34.2434 24.1071C33.0091 24.1071 32.2248 24.8914 32.2248 25.9152C32.2248 27.1816 33.0091 27.6927 34.8268 28.4866L35.8811 28.9382C39.4779 30.4746 41.4964 32.0529 41.4964 35.587C41.4964 39.3846 38.5023 41.4723 34.4941 41.4723L34.4925 41.4739Z" fill="#333646"/>
</svg>
