<svg width="44" height="45" viewBox="0 0 44 45" fill="none" xmlns="http://www.w3.org/2000/svg">
<path d="M21.989 0C21.3198 0 20.6507 0.155769 20.0732 0.467308L1.90667 10.3673C0.733333 11.0077 0 12.2192 0 13.5V31.4654C0 32.7635 0.733333 33.9577 1.90667 34.5981L6.67333 37.1942C8.98333 38.2673 9.80833 38.2673 10.8533 38.2673C14.2817 38.2673 16.2433 36.3115 16.2433 32.9192V14.3827C16.2433 14.2496 16.1873 14.1219 16.0876 14.0278C15.9879 13.9337 15.8527 13.8808 15.7117 13.8808H13.42C13.3499 13.8798 13.2803 13.8922 13.2154 13.9171C13.1504 13.942 13.0914 13.9789 13.0419 14.0257C12.9923 14.0725 12.9532 14.1282 12.9268 14.1895C12.9004 14.2508 12.8873 14.3165 12.8883 14.3827V32.9019C12.8883 34.425 11.22 35.9135 8.525 34.65L3.53833 31.9327C3.44891 31.8875 3.37429 31.8201 3.32258 31.7377C3.27087 31.6553 3.24404 31.5611 3.245 31.4654V13.5173C3.245 13.3096 3.355 13.1365 3.53833 13.0327L21.7067 3.13269C21.7917 3.08193 21.8902 3.05498 21.9908 3.05498C22.0914 3.05498 22.19 3.08193 22.275 3.13269L40.4433 13.0327C40.6267 13.1365 40.7367 13.3096 40.7367 13.5V31.4654C40.7367 31.6558 40.6267 31.8462 40.4617 31.9327L22.275 41.85C22.187 41.8925 22.0896 41.9147 21.9908 41.9147C21.892 41.9147 21.7946 41.8925 21.7067 41.85L17.0317 39.2365C16.9689 39.1929 16.8945 39.1666 16.8168 39.1605C16.7392 39.1544 16.6612 39.1687 16.5917 39.2019C15.29 39.8942 15.0517 39.9808 13.8417 40.3788C13.5483 40.4654 13.09 40.6385 14.0067 41.1231L20.075 44.5154C20.6617 44.8269 21.3217 45 21.9817 45C22.66 45 23.32 44.8269 23.9067 44.5154L42.0933 34.5981C43.2667 33.9577 44 32.7635 44 31.4654V13.5173C44 12.2192 43.2667 11.025 42.0933 10.3846L23.9067 0.467308C23.3273 0.155769 22.66 0 21.989 0ZM26.8767 13.8565C21.6883 13.8565 18.59 15.9335 18.59 19.395C18.59 23.1508 21.67 24.1858 26.6567 24.6531C32.615 25.2069 33.0733 26.0412 33.0733 27.1488C33.0733 29.0527 31.4417 29.8662 27.61 29.8662C22.7883 29.8662 21.725 28.7221 21.3767 26.4721C21.3589 26.3559 21.2971 26.2498 21.2027 26.1734C21.1083 26.097 20.9877 26.0555 20.8633 26.0567H18.4983C18.3622 26.0567 18.2316 26.1078 18.1354 26.1987C18.0391 26.2896 17.985 26.4128 17.985 26.5413C17.985 29.4317 19.6533 32.876 27.61 32.876C33.3667 32.876 36.6667 30.7298 36.6667 26.9913C36.6667 23.2875 34.0083 22.301 28.435 21.5913C22.77 20.899 22.2017 20.5356 22.2017 19.2894C22.2017 18.251 22.6967 16.8837 26.8767 16.8837C30.5983 16.8837 31.9917 17.6452 32.56 20.0163C32.615 20.2413 32.8167 20.4144 33.0733 20.4144H35.4383C35.585 20.4144 35.7133 20.3452 35.8233 20.2413C35.8732 20.1908 35.9106 20.1304 35.9328 20.0646C35.955 19.9987 35.9614 19.9291 35.9517 19.8606C35.585 15.776 32.7067 13.8548 26.8767 13.8548V13.8565Z" fill="#333646"/>
</svg>
