<svg width="44" height="45" viewBox="0 0 44 45" fill="none" xmlns="http://www.w3.org/2000/svg">
<path d="M20.7515 34.0206C20.7309 34.0768 20.7102 34.1218 20.7515 34.0206V34.0206ZM37.8794 25.865C36.4966 25.8644 35.1323 26.2974 33.8918 27.1305C33.4862 26.015 33.0668 25.0401 32.9981 24.3089C32.9156 23.4558 32.8262 22.9496 32.9225 21.9372C33.0187 20.9248 33.4518 19.4905 33.445 19.3874C33.4381 19.2843 33.3487 18.7687 32.4618 18.7593C31.5749 18.7499 30.8118 18.9937 30.7231 19.3124C30.5665 19.8949 30.4446 20.4936 30.3587 21.1029C30.2006 22.1997 28.5856 26.1181 27.6713 28.1617C27.3688 27.3649 27.1144 26.6618 27.0594 26.0993C26.9769 25.2463 26.8875 24.7401 26.9838 23.7277C27.08 22.7153 27.5131 21.281 27.5063 21.1779C27.4994 21.0748 27.41 20.5592 26.5238 20.5498C25.6376 20.5404 24.8738 20.7842 24.7844 21.1029C24.695 21.4216 24.5988 22.1715 24.42 22.8934C24.2413 23.6152 22.0901 30.1396 21.527 31.8364C21.2383 32.6988 20.9907 33.3925 20.812 33.8612C20.7845 33.9362 20.7639 33.9831 20.7501 34.0206C20.7707 33.9737 20.7845 33.9268 20.7845 33.9456C20.6332 34.3487 20.5439 34.5737 20.5439 34.5737V34.583C20.427 34.883 20.2964 35.1549 20.2345 35.1549C20.1932 35.1549 20.1039 34.3674 20.2551 33.2894C20.5782 31.0208 21.3414 27.4961 21.3345 27.3742C21.3276 27.3086 21.4789 26.6993 20.8326 26.3712C20.207 26.0619 19.9801 26.5774 19.9251 26.5774C19.8701 26.5774 19.8289 26.7649 19.8289 26.7649C19.8289 26.7649 20.5232 22.7902 18.4958 22.7902C17.2308 22.7902 15.4707 24.6838 14.6059 26.3993C14.0627 26.8024 12.8871 27.6742 11.6496 28.6023C11.1752 28.9585 10.6871 29.3241 10.2264 29.6709C10.1921 29.6241 10.1646 29.5772 10.1302 29.5303C7.66959 25.9494 3.12654 23.4183 3.31904 18.6093C3.38779 16.8564 3.83467 12.2536 12.0552 6.66656C18.7928 2.09193 24.1794 3.34808 25.1069 6.1416C26.4406 10.1257 22.2269 17.5407 15.2301 18.6093C12.5633 19.0124 11.1614 17.6063 10.8108 17.0813C10.4464 16.5283 10.3914 16.5001 10.2539 16.6032C10.0271 16.772 10.1714 17.2594 10.2539 17.55C10.4602 18.2906 11.3196 19.603 12.7833 20.2592C14.0689 20.831 17.1957 21.1498 20.9763 19.153C25.2237 16.922 28.53 10.7069 27.5606 5.50415C26.5733 0.217085 20.1437 -1.51715 14.0641 1.42636C10.4416 3.17934 6.52421 5.93537 3.70611 9.5257C0.358634 13.8004 -0.176935 17.5219 0.043068 19.078C0.82614 24.5995 6.40733 28.1992 8.64104 30.8615C8.53104 30.9458 8.42792 31.0208 8.33166 31.0958C7.21171 31.8551 2.95673 34.8924 1.89178 38.0984C0.688638 41.7356 2.09115 44.3416 3.01173 44.6978C5.88482 45.7852 8.82667 43.826 10.4073 40.6107C11.9878 37.3953 11.796 33.1956 11.0673 31.2833C11.0604 31.2552 11.0466 31.2364 11.0398 31.2083C11.3285 30.974 11.6241 30.7396 11.9198 30.5052C12.4897 30.0459 13.0466 29.6241 13.5347 29.2585C13.2597 30.2709 13.0603 31.4895 12.9572 33.2519C12.8335 35.3142 13.4591 37.9859 14.2704 39.0358C14.6279 39.4951 15.0603 39.5045 15.3284 39.5045C16.2772 39.5045 16.7034 38.4358 17.1771 37.1609C17.7615 35.6048 18.2772 33.7956 18.2772 33.7956C18.2772 33.7956 17.6309 38.6889 19.3978 38.6889C20.0434 38.6889 20.6896 37.5547 20.9791 36.9735V36.9828C20.9791 36.9828 20.9928 36.9453 21.0272 36.8703C21.0959 36.7297 21.1303 36.6454 21.1303 36.6454V36.6172C21.3916 36.0079 21.9622 34.6112 22.8209 32.3051C23.9347 29.3241 24.9996 25.6025 24.9996 25.6025C25.1025 26.4206 25.2449 27.2285 25.4259 28.0211C25.6184 28.9116 26.024 29.8865 26.3471 30.8333C26.0859 31.3208 25.9277 31.602 25.9277 31.602C25.9282 31.6092 25.9307 31.6159 25.9346 31.6208C25.7284 31.9957 25.4946 32.3988 25.254 32.7926C24.3747 34.2174 23.329 35.8486 23.1915 36.3173C23.0265 36.8703 23.0677 37.2828 23.384 37.6015C23.6177 37.8453 24.0302 37.8828 24.4627 37.8359C25.2533 37.7609 25.8102 37.4984 26.0783 37.3297C26.5726 37.088 27.0398 36.7536 27.4664 36.336C28.3258 35.4736 28.8483 34.2362 28.8002 32.6051C28.7727 31.7051 28.5595 30.8052 28.2983 29.9615C28.3739 29.8115 28.4564 29.6522 28.532 29.4928C29.8926 26.7837 30.9445 23.8102 30.9445 23.8102C31.0474 24.6283 31.1898 25.4362 31.3707 26.2287C31.5357 26.988 31.8582 27.8223 32.1538 28.6379C30.8757 30.0534 30.0851 31.6939 29.8101 32.7719C29.3013 34.7686 29.7001 35.6686 30.4495 35.8748C30.7864 35.9685 31.2676 35.7529 31.6251 35.5467C32.1561 35.3056 32.6567 34.9546 33.1095 34.5062C33.9688 33.6437 34.8 32.4345 34.745 30.794C34.7244 30.0534 34.5732 29.3128 34.3738 28.6004C35.4532 27.9817 36.855 27.6442 38.6425 27.9254C42.4706 28.5348 43.2199 31.797 43.0756 33.1563C42.9312 34.5155 42.1268 35.2749 41.8587 35.4998C41.5905 35.7248 41.508 35.8092 41.5287 35.9779C41.563 36.2216 41.6868 36.2123 41.9137 36.156C42.2299 36.081 43.9205 35.0499 43.9961 32.5282C44.1061 29.341 41.8587 25.835 37.8773 25.8631L37.8794 25.865ZM8.37292 39.4295C7.10859 41.3137 5.33482 42.0262 4.57237 41.4262C3.75424 40.7775 4.07736 38.0046 5.63732 35.9967C6.58608 34.778 7.80916 33.6531 8.62042 32.9594C8.80604 32.8094 9.07417 32.5844 9.40418 32.3126C9.45918 32.2657 9.48668 32.247 9.48668 32.247C9.54855 32.1907 9.6173 32.1439 9.68605 32.0876C10.256 34.9374 9.70668 37.4497 8.37292 39.4276V39.4295ZM17.6103 30.8615C17.1703 32.3332 16.2428 36.0829 15.6791 35.8861C15.1978 35.7173 14.9022 32.8582 15.5828 30.0459C15.9266 28.6304 16.6553 26.943 17.0885 26.2868C17.7821 25.2275 18.5453 24.8901 18.724 25.3119C18.9647 25.865 17.8853 29.9428 17.6103 30.8615ZM25.2416 35.8298C25.056 35.961 24.8841 36.0454 24.8016 35.9798C24.7397 35.9329 24.8772 35.7548 24.8772 35.7548C24.8772 35.7548 25.8329 34.3581 26.211 33.7206C26.431 33.3456 26.6854 32.905 26.9597 32.4176C26.9597 32.4645 26.9666 32.5113 26.9666 32.5676C26.9576 34.2456 25.7758 35.3798 25.2395 35.8298H25.2416ZM31.1253 34.0018C30.9878 33.8706 31.0084 33.43 31.4691 32.0614C31.6478 31.527 32.0596 30.6271 32.7753 29.7647C32.8563 30.0911 32.9004 30.4325 32.9059 30.7771C32.8991 32.8863 31.7922 33.6737 31.126 34.0018H31.1253Z" fill="#333646"/>
</svg>
