<svg width="21" height="20" viewBox="0 0 21 20" fill="none" xmlns="http://www.w3.org/2000/svg">
<path d="M21 2.32348C20.2277 2.70542 19.3873 2.98031 18.5217 3.08737C19.4204 2.47521 20.0934 1.5081 20.4145 0.367485C19.5711 0.942679 18.6473 1.34602 17.6838 1.5596C17.2811 1.06605 16.7941 0.672863 16.2531 0.404543C15.7121 0.136223 15.1287 -0.00148084 14.5392 1.20091e-05C12.1543 1.20091e-05 10.2363 2.21642 10.2363 4.9363C10.2363 5.31825 10.2767 5.70019 10.3423 6.06766C6.77118 5.85354 3.58623 3.89754 1.46881 0.902781C1.083 1.65832 0.880818 2.51858 0.883307 3.39407C0.883307 5.10702 1.64295 6.61742 2.80135 7.50572C2.11869 7.4749 1.45201 7.25977 0.855546 6.87784V6.9386C0.855546 9.3373 2.33446 11.3251 4.30549 11.7823C3.93541 11.8925 3.5547 11.9489 3.17234 11.9501C2.8922 11.9501 2.62721 11.9183 2.35969 11.8749C2.90482 13.8309 4.49225 15.2516 6.38253 15.2979C4.90362 16.626 3.0512 17.4072 1.03978 17.4072C0.678885 17.4072 0.345752 17.3928 0 17.3465C1.90794 18.7498 4.17173 19.56 6.60966 19.56C14.5241 19.56 18.8548 12.0427 18.8548 5.5179C18.8548 5.30378 18.8548 5.08966 18.8422 4.87554C19.6801 4.17242 20.4145 3.30148 21 2.32348Z" fill="#333646"/>
</svg>
